<?xml version="1.0" encoding="utf-8"?>
<!-- Generator: Adobe Illustrator 27.0.0, SVG Export Plug-In . SVG Version: 6.00 Build 0)  -->
<svg version="1.1" id="Capa_1" xmlns="http://www.w3.org/2000/svg" xmlns:xlink="http://www.w3.org/1999/xlink" x="0px" y="0px"
	 viewBox="0 0 273.6 120" style="enable-background:new 0 0 273.6 120;" xml:space="preserve">
<style type="text/css">
	.st0{fill:#0086CC;}
</style>
<g>
	<polygon class="st0" points="174.3,79.7 169.5,79.7 169.5,39.9 155.7,30 155.7,85.4 163.7,91.1 180.2,91.1 188.4,85.1 188.4,53.5 
		174.3,43.3 	"/>
	<polygon class="st0" points="262.1,42.2 250.9,53.4 239.8,42.2 218.4,42.2 231.7,51.7 231.7,91 244.1,91 244.1,71.1 251,78 
		257.7,71.3 257.7,91 270.2,91 270.2,45.7 270.2,42.2 	"/>
	<path d="M150.9,87.8V21.1l21.8,15.7l69.4,0.3l8.8,8.8l8.7-8.7l10.2,0.1l-29.5-18.5h-54.2L160.3,3.3H94.4L77.2,22.8h51.9l0.5,47.8
		l-13.8-12.3l4.4-5.6V30.5H70.4L59.8,42.4v12l-11.5-10L84.5,3.3H56.2l-28,29.4V3.3h-24v95.8h24.2V60.3l65.7,56.4h146.8l28.7-20.2
		H163L150.9,87.8z M89.3,80.1v-4.5l5.6,0.2l22.2,20.6H108L89.3,80.1z"/>
	<polygon class="st0" points="210.8,42.2 180.4,42.2 193.6,51.7 193.6,91.1 206,91.1 206,75.8 218.6,75.8 227.1,67.6 227.1,54 	"/>
</g>
</svg>
